<svg width="24" height="28" viewBox="0 0 24 28" fill="none" xmlns="http://www.w3.org/2000/svg">
<path d="M12 13.974C15.7875 13.974 18.8571 10.8462 18.8571 6.98698C18.8571 3.12776 15.7875 0 12 0C8.2125 0 5.14286 3.12776 5.14286 6.98698C5.14286 10.8462 8.2125 13.974 12 13.974ZM16.8 15.7207C16.2108 15.7207 15.6333 15.8631 15.0783 16.0608C14.1137 16.4045 13.0777 16.5941 12 16.5941C10.9216 16.5941 9.88813 16.4043 8.92202 16.0602C8.36689 15.8625 7.78928 15.7207 7.2 15.7207C3.225 15.7207 0 19.0068 0 23.057V25.3278C0 26.7743 1.15179 27.9479 2.57143 27.9479H21.4286C22.8482 27.9479 24 26.7743 24 25.3278V23.057C24 19.0068 20.775 15.7207 16.8 15.7207Z" fill="black"/>
</svg>
